# xmcd CD database file
#
# Track frame offsets:
#	150
#	19946
#	40386
#	64216
#	84139
#	102367
#	126294
#	148440
#	170725
#	194316
#
# Disc length: 2928 seconds
#
# Revision: 2
# Processed by: cddbd v1.5PL3 Copyright (c) Steve Scherf et al.
# Submitted via: CDex 1.50
#
DISCID=920b6e0a
DTITLE=岡本真夜 - Hello
DYEAR=1998
DGENRE=JPop
TTITLE0=大丈夫だよ
TTITLE1=大好き！
TTITLE2=ゆらゆら
TTITLE3=ピクニック
TTITLE4=十七歳の天使
TTITLE5=Help me
TTITLE6=サヨナラ
TTITLE7=悩んでないでLet's GO!デス
TTITLE8=思い出にできなくて
TTITLE9=With you
EXTD=YEAR: 1998
EXTT0=
EXTT1=
EXTT2=
EXTT3=
EXTT4=
EXTT5=
EXTT6=
EXTT7=
EXTT8=
EXTT9=
PLAYORDER=
